<?xml version="1.0" encoding="UTF-8"?>
<svg version="1.1" xmlns="http://www.w3.org/2000/svg" width="512" height="512">
<path d="M0 0 C0.77375977 0.19867676 1.54751953 0.39735352 2.34472656 0.60205078 C24.38005876 6.33192388 43.67362231 16.16930916 61 31 C61.81984375 31.69738281 62.6396875 32.39476562 63.484375 33.11328125 C90.93982158 57.11548066 107.47366202 89.93591738 112 126 C112.24109823 131.4553954 112.24570138 136.91480529 112.25 142.375 C112.25101212 143.52366043 112.25101212 143.52366043 112.25204468 144.69552612 C112.23651796 155.76346292 111.85519977 166.24694926 109 177 C108.83371094 177.6712793 108.66742188 178.34255859 108.49609375 179.03417969 C102.48640021 203.12859918 90.50556656 224.76674539 73.60644531 242.96337891 C73.08931599 243.52149073 72.57218666 244.07960255 72.03938675 244.65462685 C65.6986113 251.45317884 59.12561317 258.01896904 52.546875 264.5859375 C51.19299037 265.94049818 49.83925399 267.29520707 48.48565674 268.65005493 C45.67369571 271.46347627 42.85996994 274.27511681 40.04492188 277.08544922 C36.45538196 280.66926517 32.87038919 284.25759106 29.28669357 287.84724998 C26.50197604 290.63559499 23.71486413 293.42153689 20.9270401 296.20677567 C19.60435073 297.52880324 18.28238909 298.85155936 16.96120453 300.17509079 C0.69108191 316.46780042 0.69108191 316.46780042 -6.65823364 321.54498291 C-20.12630999 330.97193403 -34.28133237 342.22344693 -37.80450439 359.05889893 C-40.42283303 376.45780506 -39.56548443 394.31330674 -38.82226789 411.83117807 C-38.50839649 419.38992108 -38.39185375 426.94833866 -38.2874366 434.51241219 C-38.06917469 450.01912674 -37.59137063 465.50234533 -37 481 C-19.18 481 -1.36 481 17 481 C17 470.44 17 459.88 17 449 C15.02 448.34 13.04 447.68 11 447 C0.68951639 440.94861336 -6.23891623 431.54274833 -9.54801941 420.10595703 C-10.0118663 417.94471018 -10.14675766 415.99746809 -10.17700195 413.7890625 C-10.18983719 412.96720459 -10.20267242 412.14534668 -10.21589661 411.29858398 C-10.22697701 409.97515991 -10.22697701 409.97515991 -10.23828125 408.625 C-10.246353 407.70468994 -10.25442474 406.78437988 -10.26274109 405.83618164 C-10.27656285 403.88608674 -10.28729353 401.93596784 -10.29516602 399.98583984 C-10.30663928 398.00952976 -10.3270165 396.03324952 -10.35668945 394.05712891 C-10.58855294 378.60388089 -10.10268035 365.83108681 1 354 C1.65871094 353.2884375 2.31742187 352.576875 2.99609375 351.84375 C11.43796833 343.54128252 20.98580541 340.54698096 32.625 340.4375 C45.19239001 340.65456189 54.58002494 344.51762744 64 353 C66.80160695 356.13426529 69.07509995 359.26285309 71 363 C71.3501416 363.65468262 71.7002832 364.30936523 72.06103516 364.98388672 C76.15599928 374.05247675 75.60327735 383.70414003 75.52148438 393.45166016 C75.50004705 396.49332417 75.52135252 399.5326267 75.546875 402.57421875 C75.56855711 417.0605419 74.23797263 428.0159403 64 439 C53.76653696 449 53.76653696 449 48 449 C48 459.56 48 470.12 48 481 C58.89 481 69.78 481 81 481 C81 490.24 81 499.48 81 509 C-67.5 509 -216 509 -369 509 C-369 499.76 -369 490.52 -369 481 C-358.11 481 -347.22 481 -336 481 C-336 470.44 -336 459.88 -336 449 C-337.65 448.67 -339.3 448.34 -341 448 C-350.96790611 441.92415617 -359.23714385 432.44418987 -362.54702759 421.13011169 C-363.01928597 418.90930737 -363.15403448 416.89023851 -363.19287109 414.62133789 C-363.20893402 413.76266617 -363.22499695 412.90399445 -363.24154663 412.01930237 C-363.28652482 408.07497305 -363.32711561 404.13080627 -363.35009766 400.1862793 C-363.36657168 398.1197578 -363.39374691 396.05329124 -363.43212891 393.98706055 C-363.7109362 378.87449293 -363.27892441 366.09087755 -353.00390625 353.99609375 C-343.72778394 344.75613566 -333.43854894 340.65235154 -320.5 340.5 C-307.9176283 340.63612507 -298.99302814 344.32009253 -289.90625 353 C-283.07317812 360.13903033 -277.96043754 369.14901181 -277.82299805 379.22680664 C-277.80374519 380.46443504 -277.80374519 380.46443504 -277.78410339 381.72706604 C-277.77671646 382.61248581 -277.76932953 383.49790558 -277.76171875 384.41015625 C-277.753647 385.33283798 -277.74557526 386.25551971 -277.73725891 387.2061615 C-277.72343845 389.16045262 -277.7127072 391.11476767 -277.70483398 393.0690918 C-277.69335015 395.0522375 -277.67295582 397.03535318 -277.64331055 399.01831055 C-277.42142885 413.86950929 -278.12990607 426.0818071 -288 438 C-292.46085938 442.57298152 -296.97561766 446.64902153 -303 449 C-303.66 449 -304.32 449 -305 449 C-305 459.56 -305 470.12 -305 481 C-287.18 481 -269.36 481 -251 481 C-249.27968306 461.06563716 -247.81106688 441.28343268 -247.1875 421.3125 C-247.16401159 420.58059023 -247.14052318 419.84868047 -247.11632299 419.09459162 C-246.01745398 383.45932816 -246.11931164 351.98361575 -271.67567444 324.38719177 C-276.26057281 319.65854993 -281.0878709 315.25099894 -286.0625 310.9375 C-286.87045895 310.23622105 -287.67841789 309.53494209 -288.51086044 308.81241226 C-297.25965611 301.30198676 -306.30502984 294.30708873 -315.75988865 287.71195507 C-320.46140966 284.42667702 -324.84827556 280.96820316 -329 277 C-329.62617722 276.4042366 -330.25235443 275.80847321 -330.89750671 275.19465637 C-332.89258526 273.26988129 -334.86554978 271.3250626 -336.83203125 269.37109375 C-337.54928879 268.65953629 -338.26654633 267.94797882 -339.00553894 267.21485901 C-340.51361938 265.71616175 -342.02030019 264.21605487 -343.52563477 262.71459961 C-345.78927073 260.46063008 -348.06337867 258.21759588 -350.33789062 255.97460938 C-361.10471011 245.28680877 -371.22305556 234.24032107 -379.1875 221.25 C-379.59129883 220.59281982 -379.99509766 219.93563965 -380.41113281 219.25854492 C-394.14352031 196.30190423 -400.44999698 170.8766205 -400.3125 144.25 C-400.31034485 143.49821472 -400.3081897 142.74642944 -400.30596924 141.97186279 C-400.25558309 131.02234035 -399.85676955 120.62933879 -397 110 C-396.80132324 109.22624023 -396.60264648 108.45248047 -396.39794922 107.65527344 C-390.66807612 85.61994124 -380.83069084 66.32637769 -366 49 C-365.30261719 48.18015625 -364.60523438 47.3603125 -363.88671875 46.515625 C-354.78080229 36.09962109 -344.7037853 27.38572668 -333 20 C-332.40622559 19.62488281 -331.81245117 19.24976562 -331.20068359 18.86328125 C-307.76695463 4.32804423 -282.05325925 -2.22840669 -254.625 -2.25 C-253.47633957 -2.25101212 -253.47633957 -2.25101212 -252.30447388 -2.25204468 C-241.23653708 -2.23651796 -230.75305074 -1.85519977 -220 1 C-219.3287207 1.16628906 -218.65744141 1.33257813 -217.96582031 1.50390625 C-192.51827735 7.85109941 -170.22459676 20.83981278 -151.36328125 39.01464844 C-148.73851582 41.52205974 -146.39436127 43.63735978 -143 45 C-142.41605469 44.29037109 -142.41605469 44.29037109 -141.8203125 43.56640625 C-108.91218183 4.6680859 -49.1545683 -13.21091339 0 0 Z " fill="#FF3276" transform="translate(400,3)"/>
<path d="M0 0 C70.62 0 141.24 0 214 0 C214 104.61 214 209.22 214 317 C231.82 317 249.64 317 268 317 C268 306.44 268 295.88 268 285 C266.02 284.34 264.04 283.68 262 283 C251.68951639 276.94861336 244.76108377 267.54274833 241.45198059 256.10595703 C240.9881337 253.94471018 240.85324234 251.99746809 240.82299805 249.7890625 C240.81016281 248.96720459 240.79732758 248.14534668 240.78410339 247.29858398 C240.77302299 245.97515991 240.77302299 245.97515991 240.76171875 244.625 C240.753647 243.70468994 240.74557526 242.78437988 240.73725891 241.83618164 C240.72343715 239.88608674 240.71270647 237.93596784 240.70483398 235.98583984 C240.69336072 234.00952976 240.6729835 232.03324952 240.64331055 230.05712891 C240.41144706 214.60388089 240.89731965 201.83108681 252 190 C252.65871094 189.2884375 253.31742187 188.576875 253.99609375 187.84375 C262.43796833 179.54128252 271.98580541 176.54698096 283.625 176.4375 C296.19239001 176.65456189 305.58002494 180.51762744 315 189 C317.80160695 192.13426529 320.07509995 195.26285309 322 199 C322.3501416 199.65468262 322.7002832 200.30936523 323.06103516 200.98388672 C327.15599928 210.05247675 326.60327735 219.70414003 326.52148438 229.45166016 C326.50004705 232.49332417 326.52135252 235.5326267 326.546875 238.57421875 C326.56855711 253.0605419 325.23797263 264.0159403 315 275 C304.76653696 285 304.76653696 285 299 285 C299 295.56 299 306.12 299 317 C309.89 317 320.78 317 332 317 C332 326.24 332 335.48 332 345 C183.5 345 35 345 -118 345 C-118 335.76 -118 326.52 -118 317 C-107.11 317 -96.22 317 -85 317 C-85 306.44 -85 295.88 -85 285 C-86.65 284.67 -88.3 284.34 -90 284 C-99.96790611 277.92415617 -108.23714385 268.44418987 -111.54702759 257.13011169 C-112.01928597 254.90930737 -112.15403448 252.89023851 -112.19287109 250.62133789 C-112.20893402 249.76266617 -112.22499695 248.90399445 -112.24154663 248.01930237 C-112.28652482 244.07497305 -112.32711561 240.13080627 -112.35009766 236.1862793 C-112.36657168 234.1197578 -112.39374691 232.05329124 -112.43212891 229.98706055 C-112.7109362 214.87449293 -112.27892441 202.09087755 -102.00390625 189.99609375 C-92.72778394 180.75613566 -82.43854894 176.65235154 -69.5 176.5 C-56.9176283 176.63612507 -47.99302814 180.32009253 -38.90625 189 C-32.07317812 196.13903033 -26.96043754 205.14901181 -26.82299805 215.22680664 C-26.81016281 216.05189224 -26.79732758 216.87697784 -26.78410339 217.72706604 C-26.77671646 218.61248581 -26.76932953 219.49790558 -26.76171875 220.41015625 C-26.753647 221.33283798 -26.74557526 222.25551971 -26.73725891 223.2061615 C-26.72343845 225.16045262 -26.7127072 227.11476767 -26.70483398 229.0690918 C-26.69335015 231.0522375 -26.67295582 233.03535318 -26.64331055 235.01831055 C-26.42142885 249.86950929 -27.12990607 262.0818071 -37 274 C-41.46085938 278.57298152 -45.97561766 282.64902153 -52 285 C-52.66 285 -53.32 285 -54 285 C-54 295.56 -54 306.12 -54 317 C-36.18 317 -18.36 317 0 317 C0 212.39 0 107.78 0 0 Z " fill="#ECE4F0" transform="translate(149,167)"/>
<path d="M0 0 C1.14866043 -0.00101212 1.14866043 -0.00101212 2.32052612 -0.00204468 C13.38846292 0.01348204 23.87194926 0.39480023 34.625 3.25 C35.2962793 3.41628906 35.96755859 3.58257812 36.65917969 3.75390625 C64.41628203 10.67715579 87.12407977 25.60451385 107.625 45.25 C108.1685529 45.69882192 108.71210581 46.14764383 109.27213001 46.61006641 C111.10912856 48.83685513 110.99489836 50.22521465 110.98576355 53.09049988 C110.99194954 54.58599113 110.99194954 54.58599113 110.9982605 56.11169434 C110.98747467 57.20429565 110.97668884 58.29689697 110.96557617 59.42260742 C110.96601425 60.57396683 110.96645233 61.72532623 110.96690369 62.91157532 C110.96480965 66.72637753 110.94144888 70.54074308 110.91796875 74.35546875 C110.912375 76.99676778 110.90810386 79.63806992 110.90510559 82.27937317 C110.89577833 88.52672544 110.87115548 94.77392037 110.84105712 101.02120334 C110.8042462 108.83116265 110.7878162 116.64114748 110.77148438 124.45117188 C110.74225828 138.38423718 110.68216336 152.3169591 110.625 166.25 C75.315 166.25 40.005 166.25 3.625 166.25 C3.625 228.62 3.625 290.99 3.625 355.25 C-1.05660151 351.2371987 -5.50497121 347.25817292 -9.82592773 342.89672852 C-10.42857452 342.29262146 -11.03122131 341.6885144 -11.65213013 341.06610107 C-12.94852116 339.76593153 -14.24375673 338.46460902 -15.53793144 337.16223335 C-17.592379 335.09490925 -19.65003278 333.03082395 -21.70851135 330.96751404 C-26.81903114 325.84369253 -31.92408413 320.71443544 -37.02929688 315.58532715 C-41.35091387 311.24389936 -45.67462705 306.90457943 -50.00108528 302.567976 C-52.01708165 300.54555073 -54.03001454 298.52011102 -56.04283142 296.49452209 C-61.43027742 291.08567608 -66.79083898 285.7263935 -72.61204529 280.77919006 C-75.9554548 277.87911068 -79.0686755 274.73948032 -82.20703125 271.62109375 C-82.92428879 270.90953629 -83.64154633 270.19797882 -84.38053894 269.46485901 C-85.88861938 267.96616175 -87.39530019 266.46605487 -88.90063477 264.96459961 C-91.16427073 262.71063008 -93.43837867 260.46759588 -95.71289062 258.22460938 C-106.47971011 247.53680877 -116.59805556 236.49032107 -124.5625 223.5 C-124.96629883 222.84281982 -125.37009766 222.18563965 -125.78613281 221.50854492 C-139.51852031 198.55190423 -145.82499698 173.1266205 -145.6875 146.5 C-145.68534485 145.74821472 -145.6831897 144.99642944 -145.68096924 144.22186279 C-145.63058309 133.27234035 -145.23176955 122.87933879 -142.375 112.25 C-142.17632324 111.47624023 -141.97764648 110.70248047 -141.77294922 109.90527344 C-136.04307612 87.86994124 -126.20569084 68.57637769 -111.375 51.25 C-110.67761719 50.43015625 -109.98023438 49.6103125 -109.26171875 48.765625 C-100.15580229 38.34962109 -90.0787853 29.63572668 -78.375 22.25 C-77.78122559 21.87488281 -77.18745117 21.49976562 -76.57568359 21.11328125 C-53.14195463 6.57804423 -27.42825925 0.02159331 0 0 Z " fill="#FF6B6B" transform="translate(145.375,0.75)"/>
<path d="M0 0 C34.98 0 69.96 0 106 0 C106 113.52 106 227.04 106 344 C31.75 344 -42.5 344 -119 344 C-119 334.76 -119 325.52 -119 316 C-108.11 316 -97.22 316 -86 316 C-86 305.44 -86 294.88 -86 284 C-87.65 283.67 -89.3 283.34 -91 283 C-100.96790611 276.92415617 -109.23714385 267.44418987 -112.54702759 256.13011169 C-113.01928597 253.90930737 -113.15403448 251.89023851 -113.19287109 249.62133789 C-113.20893402 248.76266617 -113.22499695 247.90399445 -113.24154663 247.01930237 C-113.28652482 243.07497305 -113.32711561 239.13080627 -113.35009766 235.1862793 C-113.36657168 233.1197578 -113.39374691 231.05329124 -113.43212891 228.98706055 C-113.7109362 213.87449293 -113.27892441 201.09087755 -103.00390625 188.99609375 C-93.72778394 179.75613566 -83.43854894 175.65235154 -70.5 175.5 C-57.9176283 175.63612507 -48.99302814 179.32009253 -39.90625 188 C-33.07317812 195.13903033 -27.96043754 204.14901181 -27.82299805 214.22680664 C-27.81016281 215.05189224 -27.79732758 215.87697784 -27.78410339 216.72706604 C-27.77671646 217.61248581 -27.76932953 218.49790558 -27.76171875 219.41015625 C-27.753647 220.33283798 -27.74557526 221.25551971 -27.73725891 222.2061615 C-27.72343845 224.16045262 -27.7127072 226.11476767 -27.70483398 228.0690918 C-27.69335015 230.0522375 -27.67295582 232.03535318 -27.64331055 234.01831055 C-27.42142885 248.86950929 -28.12990607 261.0818071 -38 273 C-42.46085938 277.57298152 -46.97561766 281.64902153 -53 284 C-53.66 284 -54.32 284 -55 284 C-55 294.56 -55 305.12 -55 316 C-37.18 316 -19.36 316 -1 316 C-1.01160156 308.94109375 -1.02320313 301.8821875 -1.03515625 294.609375 C-1.04768463 284.32291875 -1.0561283 274.03646161 -1.0625 263.75 C-1.0629343 263.07023605 -1.06336861 262.39047211 -1.06381607 261.69010925 C-1.1001577 203.12562702 -0.82780244 144.56344982 -0.5 86 C-0.49402628 84.93124319 -0.48805257 83.86248638 -0.48189783 82.761343 C-0.4401532 75.29890134 -0.39807624 67.83646161 -0.35571289 60.37402344 C-0.35039138 59.43642071 -0.34506986 58.49881799 -0.33958709 57.53280306 C-0.23046844 38.35517722 -0.11454195 19.17759509 0 0 Z " fill="#FFF4F4" transform="translate(150,168)"/>
<path d="M0 0 C10.01298091 6.91280798 17.26398453 16.73473012 19.84375 28.71484375 C19.94524725 30.12135673 20.00152204 31.53161115 20.02075195 32.94165039 C20.04000481 34.17927879 20.04000481 34.17927879 20.05964661 35.44190979 C20.06703354 36.32732956 20.07442047 37.21274933 20.08203125 38.125 C20.090103 39.04768173 20.09817474 39.97036346 20.10649109 40.92100525 C20.12031155 42.87529637 20.1310428 44.82961142 20.13891602 46.78393555 C20.15039985 48.76708125 20.17079418 50.75019693 20.20043945 52.7331543 C20.42232115 67.58435304 19.71384393 79.79665085 9.84375 91.71484375 C5.38289062 96.28782527 0.86813234 100.36386528 -5.15625 102.71484375 C-5.81625 102.71484375 -6.47625 102.71484375 -7.15625 102.71484375 C-7.15625 113.27484375 -7.15625 123.83484375 -7.15625 134.71484375 C10.99375 134.71484375 29.14375 134.71484375 47.84375 134.71484375 C47.84375 143.95484375 47.84375 153.19484375 47.84375 162.71484375 C8.57375 162.71484375 -30.69625 162.71484375 -71.15625 162.71484375 C-71.15625 153.47484375 -71.15625 144.23484375 -71.15625 134.71484375 C-60.26625 134.71484375 -49.37625 134.71484375 -38.15625 134.71484375 C-38.15625 124.15484375 -38.15625 113.59484375 -38.15625 102.71484375 C-39.80625 102.38484375 -41.45625 102.05484375 -43.15625 101.71484375 C-53.12415611 95.63899992 -61.39339385 86.15903362 -64.70327759 74.84495544 C-65.17553597 72.62415112 -65.31028448 70.60508226 -65.34912109 68.33618164 C-65.36518402 67.47750992 -65.38124695 66.6188382 -65.39779663 65.73414612 C-65.44277482 61.7898168 -65.48336561 57.84565002 -65.50634766 53.90112305 C-65.52282168 51.83460155 -65.54999691 49.76813499 -65.58837891 47.7019043 C-65.8671862 32.58933668 -65.43517441 19.8057213 -55.16015625 7.7109375 C-40.64934698 -6.74329941 -17.88550148 -10.66001809 0 0 Z " fill="#CBE075" transform="translate(102.15625,349.28515625)"/>
<path d="M0 0 C6.54025514 4.36606222 11.52319292 9.28153056 15.140625 16.3046875 C15.6658374 17.28671143 15.6658374 17.28671143 16.20166016 18.28857422 C20.29662428 27.35716425 19.74390235 37.00882753 19.66210938 46.75634766 C19.64067205 49.79801167 19.66197752 52.8373142 19.6875 55.87890625 C19.70918211 70.3652294 18.37859763 81.3206278 8.140625 92.3046875 C-2.09283804 102.3046875 -2.09283804 102.3046875 -7.859375 102.3046875 C-7.859375 112.8646875 -7.859375 123.4246875 -7.859375 134.3046875 C3.030625 134.3046875 13.920625 134.3046875 25.140625 134.3046875 C25.140625 143.5446875 25.140625 152.7846875 25.140625 162.3046875 C-13.799375 162.3046875 -52.739375 162.3046875 -92.859375 162.3046875 C-92.859375 153.0646875 -92.859375 143.8246875 -92.859375 134.3046875 C-75.039375 134.3046875 -57.219375 134.3046875 -38.859375 134.3046875 C-38.859375 123.7446875 -38.859375 113.1846875 -38.859375 102.3046875 C-41.829375 101.3146875 -41.829375 101.3146875 -44.859375 100.3046875 C-55.16985861 94.25330086 -62.09829123 84.84743583 -65.40739441 73.41064453 C-65.8712413 71.24939768 -66.00613266 69.30215559 -66.03637695 67.09375 C-66.04921219 66.27189209 -66.06204742 65.45003418 -66.07527161 64.60327148 C-66.08265854 63.72098877 -66.09004547 62.83870605 -66.09765625 61.9296875 C-66.105728 61.00937744 -66.11379974 60.08906738 -66.12211609 59.14086914 C-66.13593785 57.19077424 -66.14666853 55.24065534 -66.15454102 53.29052734 C-66.16601428 51.31421726 -66.1863915 49.33793702 -66.21606445 47.36181641 C-66.44792794 31.90856839 -65.96205535 19.13577431 -54.859375 7.3046875 C-54.20066406 6.593125 -53.54195313 5.8815625 -52.86328125 5.1484375 C-38.79429014 -8.68822165 -16.58508911 -9.83323589 0 0 Z " fill="#87CD76" transform="translate(455.859375,349.6953125)"/>
<path d="M0 0 C14.85 0 29.7 0 45 0 C45 35.64 45 71.28 45 108 C30.15 108 15.3 108 0 108 C0 72.36 0 36.72 0 0 Z " fill="#CFCFE6" transform="translate(256,404)"/>
<path d="M0 0 C14.85 0 29.7 0 45 0 C45 35.64 45 71.28 45 108 C30.15 108 15.3 108 0 108 C0 72.36 0 36.72 0 0 Z " fill="#ECE6F2" transform="translate(211,404)"/>
<path d="M0 0 C4.95 0.99 4.95 0.99 10 2 C13.19724422 2.3060217 13.19724422 2.3060217 16.0625 2.25 C16.98160156 2.25515625 17.90070313 2.2603125 18.84765625 2.265625 C22.95368386 1.91964002 26.97754445 0.89387901 31 0 C31 10.56 31 21.12 31 32 C49.15 32 67.3 32 86 32 C86 41.24 86 50.48 86 60 C46.73 60 7.46 60 -33 60 C-33 50.76 -33 41.52 -33 32 C-22.11 32 -11.22 32 0 32 C0 21.44 0 10.88 0 0 Z " fill="#CBE076" transform="translate(64,452)"/>
<path d="M0 0 C4.95 0.99 4.95 0.99 10 2 C12.93401166 2.30475342 12.93401166 2.30475342 15.5 2.25 C16.72203125 2.25773437 16.72203125 2.25773437 17.96875 2.265625 C22.3608311 1.88075191 26.67670624 0.86465875 31 0 C31 10.56 31 21.12 31 32 C41.89 32 52.78 32 64 32 C64 41.24 64 50.48 64 60 C25.06 60 -13.88 60 -54 60 C-54 50.76 -54 41.52 -54 32 C-36.18 32 -18.36 32 0 32 C0 21.44 0 10.88 0 0 Z " fill="#86CD76" transform="translate(417,452)"/>
<path d="M0 0 C9.9 0 19.8 0 30 0 C30 17.82 30 35.64 30 54 C20.1 54 10.2 54 0 54 C0 36.18 0 18.36 0 0 Z " fill="#CFCFE6" transform="translate(271,317)"/>
<path d="M0 0 C9.9 0 19.8 0 30 0 C30 17.82 30 35.64 30 54 C20.1 54 10.2 54 0 54 C0 36.18 0 18.36 0 0 Z " fill="#ECE6F2" transform="translate(211,317)"/>
<path d="M0 0 C9.9 0 19.8 0 30 0 C30 17.82 30 35.64 30 54 C20.1 54 10.2 54 0 54 C0 36.18 0 18.36 0 0 Z " fill="#CFCFE6" transform="translate(271,233)"/>
<path d="M0 0 C9.9 0 19.8 0 30 0 C30 17.82 30 35.64 30 54 C20.1 54 10.2 54 0 54 C0 36.18 0 18.36 0 0 Z " fill="#ECE6F2" transform="translate(211,233)"/>
<path d="M0 0 C4.95 0.99 4.95 0.99 10 2 C13.19724422 2.3060217 13.19724422 2.3060217 16.0625 2.25 C16.98160156 2.25515625 17.90070313 2.2603125 18.84765625 2.265625 C22.95368386 1.91964002 26.97754445 0.89387901 31 0 C31 10.56 31 21.12 31 32 C20.77 32 10.54 32 0 32 C0 21.44 0 10.88 0 0 Z " fill="#B79878" transform="translate(64,452)"/>
<path d="M0 0 C4.95 0.99 4.95 0.99 10 2 C12.93401166 2.30475342 12.93401166 2.30475342 15.5 2.25 C16.72203125 2.25773437 16.72203125 2.25773437 17.96875 2.265625 C22.3608311 1.88075191 26.67670624 0.86465875 31 0 C31 10.56 31 21.12 31 32 C20.77 32 10.54 32 0 32 C0 21.44 0 10.88 0 0 Z " fill="#7D675A" transform="translate(417,452)"/>
</svg>
